<svg display="none" xmlns="http://www.w3.org/2000/svg">

    <symbol id="solis_logo" viewBox="0 0 105 32" > 
        <path d="M53 11.94C52.9067 12.0933 52.81 12.2067 52.71 12.28C52.6167 12.3467 52.4933 12.38 52.34 12.38C52.1933 12.38 52.0333 12.33 51.86 12.23C51.6933 12.1233 51.4967 12.01 51.27 11.89C51.0433 11.77 50.7833 11.66 50.49 11.56C50.1967 11.4533 49.8533 11.4 49.46 11.4C48.7667 11.4 48.2467 11.5567 47.9 11.87C47.5533 12.1767 47.38 12.58 47.38 13.08C47.38 13.4 47.4733 13.6667 47.66 13.88C47.8533 14.0867 48.1033 14.2667 48.41 14.42C48.7233 14.5733 49.0767 14.71 49.47 14.83C49.8633 14.95 50.2667 15.0833 50.68 15.23C51.0933 15.37 51.4967 15.5367 51.89 15.73C52.2833 15.9233 52.6333 16.1667 52.94 16.46C53.2533 16.7533 53.5033 17.1133 53.69 17.54C53.8833 17.96 53.98 18.4733 53.98 19.08C53.98 19.74 53.8633 20.36 53.63 20.94C53.4033 21.5133 53.0733 22.0167 52.64 22.45C52.2067 22.8767 51.67 23.2133 51.03 23.46C50.3967 23.7067 49.6767 23.83 48.87 23.83C48.41 23.83 47.95 23.7833 47.49 23.69C47.0367 23.5967 46.5967 23.4667 46.17 23.3C45.75 23.1333 45.3533 22.9333 44.98 22.7C44.6067 22.4667 44.28 22.2067 44 21.92L44.88 20.5C44.9533 20.3933 45.05 20.3067 45.17 20.24C45.29 20.1667 45.4167 20.13 45.55 20.13C45.73 20.13 45.92 20.1967 46.12 20.33C46.32 20.4633 46.55 20.61 46.81 20.77C47.07 20.93 47.37 21.0767 47.71 21.21C48.0567 21.3433 48.47 21.41 48.95 21.41C49.65 21.41 50.19 21.25 50.57 20.93C50.9567 20.61 51.15 20.1333 51.15 19.5C51.15 19.1333 51.0533 18.8367 50.86 18.61C50.6733 18.3833 50.4267 18.1933 50.12 18.04C49.8133 17.8867 49.4633 17.7567 49.07 17.65C48.6767 17.5367 48.2733 17.4133 47.86 17.28C47.4467 17.1467 47.0433 16.9867 46.65 16.8C46.2567 16.6133 45.9067 16.3667 45.6 16.06C45.2933 15.7533 45.0433 15.3733 44.85 14.92C44.6633 14.4667 44.57 13.9033 44.57 13.23C44.57 12.69 44.6767 12.1667 44.89 11.66C45.1033 11.1533 45.4167 10.7033 45.83 10.31C46.2433 9.91667 46.75 9.6 47.35 9.36C47.9567 9.12 48.65 9 49.43 9C50.3033 9 51.11 9.13667 51.85 9.41C52.5967 9.67667 53.2267 10.05 53.74 10.53L53 11.94Z" fill="white"/>
<path d="M71.7756 16.41C71.7756 17.47 71.5956 18.4533 71.2356 19.36C70.8823 20.2667 70.379 21.05 69.7256 21.71C69.079 22.37 68.299 22.89 67.3856 23.27C66.4723 23.6433 65.459 23.83 64.3456 23.83C63.2323 23.83 62.219 23.6433 61.3056 23.27C60.3923 22.89 59.609 22.37 58.9556 21.71C58.3023 21.05 57.7956 20.2667 57.4356 19.36C57.0823 18.4533 56.9056 17.47 56.9056 16.41C56.9056 15.35 57.0823 14.37 57.4356 13.47C57.7956 12.5633 58.3023 11.78 58.9556 11.12C59.609 10.46 60.3923 9.94333 61.3056 9.57C62.219 9.19 63.2323 9 64.3456 9C65.459 9 66.4723 9.19 67.3856 9.57C68.299 9.94333 69.079 10.4633 69.7256 11.13C70.379 11.79 70.8823 12.5733 71.2356 13.48C71.5956 14.38 71.7756 15.3567 71.7756 16.41ZM68.7056 16.41C68.7056 15.65 68.6056 14.97 68.4056 14.37C68.2056 13.7633 67.9156 13.25 67.5356 12.83C67.1623 12.4033 66.7056 12.08 66.1656 11.86C65.6323 11.6333 65.0256 11.52 64.3456 11.52C63.6656 11.52 63.0556 11.6333 62.5156 11.86C61.9756 12.08 61.5156 12.4033 61.1356 12.83C60.7623 13.25 60.4756 13.7633 60.2756 14.37C60.0756 14.97 59.9756 15.65 59.9756 16.41C59.9756 17.1767 60.0756 17.8633 60.2756 18.47C60.4756 19.07 60.7623 19.58 61.1356 20C61.5156 20.42 61.9756 20.7433 62.5156 20.97C63.0556 21.19 63.6656 21.3 64.3456 21.3C65.0256 21.3 65.6323 21.19 66.1656 20.97C66.7056 20.7433 67.1623 20.42 67.5356 20C67.9156 19.58 68.2056 19.07 68.4056 18.47C68.6056 17.8633 68.7056 17.1767 68.7056 16.41Z" fill="white"/>
<path d="M84.1766 21.23V23.67H75.5666V9.16H78.5666V21.23H84.1766Z" fill="white"/>
<path d="M90.6358 23.67H87.6158V9.16H90.6358V23.67Z" fill="white"/>
<path d="M103.13 11.94C103.037 12.0933 102.94 12.2067 102.84 12.28C102.747 12.3467 102.624 12.38 102.47 12.38C102.324 12.38 102.164 12.33 101.99 12.23C101.824 12.1233 101.627 12.01 101.4 11.89C101.174 11.77 100.914 11.66 100.62 11.56C100.327 11.4533 99.9838 11.4 99.5905 11.4C98.8971 11.4 98.3771 11.5567 98.0305 11.87C97.6838 12.1767 97.5105 12.58 97.5105 13.08C97.5105 13.4 97.6038 13.6667 97.7905 13.88C97.9838 14.0867 98.2338 14.2667 98.5405 14.42C98.8538 14.5733 99.2071 14.71 99.6005 14.83C99.9938 14.95 100.397 15.0833 100.81 15.23C101.224 15.37 101.627 15.5367 102.02 15.73C102.414 15.9233 102.764 16.1667 103.07 16.46C103.384 16.7533 103.634 17.1133 103.82 17.54C104.014 17.96 104.11 18.4733 104.11 19.08C104.11 19.74 103.994 20.36 103.76 20.94C103.534 21.5133 103.204 22.0167 102.77 22.45C102.337 22.8767 101.8 23.2133 101.16 23.46C100.527 23.7067 99.8071 23.83 99.0005 23.83C98.5405 23.83 98.0805 23.7833 97.6205 23.69C97.1671 23.5967 96.7271 23.4667 96.3005 23.3C95.8805 23.1333 95.4838 22.9333 95.1105 22.7C94.7371 22.4667 94.4105 22.2067 94.1305 21.92L95.0105 20.5C95.0838 20.3933 95.1805 20.3067 95.3005 20.24C95.4205 20.1667 95.5471 20.13 95.6805 20.13C95.8605 20.13 96.0505 20.1967 96.2505 20.33C96.4505 20.4633 96.6805 20.61 96.9405 20.77C97.2005 20.93 97.5005 21.0767 97.8405 21.21C98.1871 21.3433 98.6005 21.41 99.0805 21.41C99.7805 21.41 100.32 21.25 100.7 20.93C101.087 20.61 101.28 20.1333 101.28 19.5C101.28 19.1333 101.184 18.8367 100.99 18.61C100.804 18.3833 100.557 18.1933 100.25 18.04C99.9438 17.8867 99.5938 17.7567 99.2005 17.65C98.8071 17.5367 98.4038 17.4133 97.9905 17.28C97.5771 17.1467 97.1738 16.9867 96.7805 16.8C96.3871 16.6133 96.0371 16.3667 95.7305 16.06C95.4238 15.7533 95.1738 15.3733 94.9805 14.92C94.7938 14.4667 94.7005 13.9033 94.7005 13.23C94.7005 12.69 94.8071 12.1667 95.0205 11.66C95.2338 11.1533 95.5471 10.7033 95.9605 10.31C96.3738 9.91667 96.8805 9.6 97.4805 9.36C98.0871 9.12 98.7805 9 99.5605 9C100.434 9 101.24 9.13667 101.98 9.41C102.727 9.67667 103.357 10.05 103.87 10.53L103.13 11.94Z" fill="white"/>
<path fill-rule="evenodd" clip-rule="evenodd" d="M21.0757 4.75L23.5 7.17431L30.6743 0H25.7632L21.0757 4.75ZM32 8.11181L28.5757 4.75L32 1.32568V8.11181ZM6.07335 19.7489L12.2467 13.5755L14.6707 15.9994L8.4973 22.1728L6.07335 19.7489ZM21.0717 19.7505L27.2451 13.5771L29.6691 16.0011L23.4957 22.1745L21.0717 19.7505ZM15.996 17.326L13.5721 19.7499L19.7455 25.9233L22.1694 23.4994L15.996 17.326ZM12.25 21.0757L18.4243 27.25L16 29.7368L9.82568 23.5L12.25 21.0757ZM31.0625 17.3257L32 18.2632V23.1118L28.5757 19.75L31.0625 17.3257ZM2.32417 15.9989L8.49756 9.8255L10.9215 12.2494L4.74811 18.4228L2.32417 15.9989ZM23.4959 9.82713L17.3225 16.0005L19.7465 18.4245L25.9199 12.2511L23.4959 9.82713ZM27.25 6.07568L32 10.7632V15.6118L24.8257 8.5L27.25 6.07568ZM13.5757 4.75L19.75 10.9243L22.1743 8.5L16 2.26318L13.5757 4.75ZM12.2477 6.07672L9.82373 8.50067L15.9971 14.6741L18.4211 12.2501L12.2477 6.07672ZM25.9243 27.25L23.5 24.8257L16.3882 32H21.2368L25.9243 27.25ZM12.25 28.5757L14.6743 31.0625L13.7368 32H8.88818L12.25 28.5757ZM10.9243 27.25L8.5 24.8257L1.32569 32H6.23682L10.9243 27.25ZM24.8257 23.5L27.25 21.0757L32 25.7632V30.6743L24.8257 23.5ZM0 23.8882V30.6743L3.42431 27.25L0 23.8882ZM23.8882 32L27.25 28.5757L30.6743 32H23.8882ZM17.3257 0.9375L19.75 3.42431L23.1118 0H18.2632L17.3257 0.9375ZM8.11182 0L4.75 3.42431L1.32569 0H8.11182ZM4.75 25.9243L7.17431 23.5L0 16.3882V21.2368L4.75 25.9243ZM8.5 7.17431L6.07568 4.75L10.7632 0H15.6118L8.5 7.17431ZM4.75 10.9243L7.17431 8.5L0 1.32568V6.23681L4.75 10.9243ZM3.42431 12.25L0.9375 14.6743L0 13.7368V8.88818L3.42431 12.25Z" fill="white"/>
    </symbol>
    
    <symbol id="moon_icon_white"  viewBox="0 0 18 18" > 
        <path d="M15.5658 15.3296C16.8024 14.0925 17.6092 12.5883 17.9863 11.0027C18.0944 10.5485 17.5363 10.2418 17.2072 10.5728C17.2031 10.5768 17.1991 10.5809 17.195 10.5849C14.4436 13.3374 9.94955 13.2843 7.26525 10.4257C4.73457 7.7307 4.76779 3.5467 7.33766 0.889053C7.37007 0.855546 7.40272 0.822435 7.43564 0.789718C7.76573 0.461658 7.45721 -0.0940025 7.00452 0.0136152C5.43353 0.387093 3.94243 1.1826 2.7118 2.40055C-0.886352 5.9617 -0.906618 11.7354 2.66754 15.3206C6.22607 18.8902 12.0035 18.8931 15.5658 15.3296Z" fill="white"/>
    </symbol>
    
    <symbol id="bitcoin_logo"   viewBox="0 0 18 18">
        <path fill-rule="evenodd" clip-rule="evenodd" d="M9 18C4.02919 18 0 13.9708 0 9C0 4.02919 4.02919 0 9 0C13.9708 0 18 4.02919 18 9C18 13.9708 13.9708 18 9 18ZM13.0438 7.88625C13.2204 6.70725 12.3221 6.07331 11.0948 5.65031L11.493 4.05281L10.521 3.81094L10.1329 5.36625C9.8775 5.30212 9.61537 5.2425 9.35381 5.18287L9.74475 3.61744L8.77275 3.375L8.3745 4.97194C8.163 4.92356 7.95487 4.87631 7.7535 4.82569L7.75463 4.82062L6.41363 4.48594L6.15488 5.52431C6.15488 5.52431 6.87656 5.68969 6.86137 5.69981C7.25513 5.79825 7.326 6.05869 7.31419 6.26569L6.86081 8.08537C6.88781 8.09212 6.92269 8.10225 6.96206 8.11744L6.85913 8.09212L6.2235 10.6414C6.17513 10.7606 6.05306 10.9401 5.77744 10.872C5.78756 10.8861 5.07094 10.6959 5.07094 10.6959L4.58831 11.8086L5.85394 12.1241C6.08906 12.1832 6.31969 12.2451 6.54637 12.303L6.14419 13.9185L7.11562 14.1604L7.51388 12.5629C7.77938 12.6343 8.037 12.7007 8.289 12.7637L7.89187 14.3544L8.86388 14.5963L9.26606 12.9842C10.9243 13.2981 12.1708 13.1715 12.6956 11.6719C13.1186 10.4648 12.6748 9.76781 11.8024 9.31388C12.438 9.16763 12.9161 8.74969 13.0438 7.88625ZM10.8219 11.0014C10.5221 12.2091 8.48869 11.556 7.82944 11.3923L8.36381 9.252C9.02306 9.41681 11.1364 9.7425 10.8219 11.0014ZM11.1229 7.86881C10.8489 8.96737 9.15694 8.40881 8.6085 8.27213L9.09225 6.3315C9.64069 6.46819 11.4086 6.723 11.1229 7.86881Z" fill="white"/>
    </symbol>
    
    <symbol id="arrow-right"   viewBox="0 0 16 16">
        <path fill-rule="evenodd" clip-rule="evenodd" d="M10.5858 8.99995H2V6.99995H10.5858L7.29289 3.70706L8.70711 2.29285L14.4142 7.99995L8.70711 13.7071L7.29289 12.2928L10.5858 8.99995Z" fill="white"/>    
    </symbol>
    
    <symbol id="tcoin_logo"   viewBox="0 0 18 18"  >
        <path fill-rule="evenodd" clip-rule="evenodd" d="M9 18C4.02919 18 0 13.9708 0 9C0 4.02919 4.02919 0 9 0C13.9708 0 18 4.02919 18 9C18 13.9708 13.9708 18 9 18ZM10.0811 7.75856V6.42769H13.1265V4.39819H4.83469V6.42769H7.88006V7.758C5.40506 7.87162 3.54375 8.36212 3.54375 8.94938C3.54375 9.53662 5.40506 10.0266 7.88006 10.1407V14.4056H10.0811V10.1396C12.5522 10.026 14.409 9.53606 14.409 8.94938C14.409 8.36269 12.5522 7.87275 10.0811 7.75856ZM10.0811 9.77794V9.77681C10.0193 9.78131 9.70031 9.80044 8.98875 9.80044C8.42062 9.80044 8.02069 9.78356 7.88006 9.77681V9.7785C5.69306 9.68231 4.06069 9.3015 4.06069 8.84587C4.06069 8.39081 5.69306 8.01 7.88006 7.91213V9.39937C8.02294 9.4095 8.43244 9.43369 8.99831 9.43369C9.67725 9.43369 10.0176 9.40556 10.0811 9.39994V7.91325C12.2636 8.01056 13.8921 8.39137 13.8921 8.84587C13.8921 9.3015 12.2636 9.68119 10.0811 9.77794Z" fill="white"/>
    </symbol>
    
    <symbol id="arrow_prev"   viewBox="0 0 48 12"  >
        <path opacity="0.1" fill-rule="evenodd" clip-rule="evenodd" d="M10 11.7734L0 5.99993L10 0.226432V4.99993L48 4.99993V6.99993L10 6.99993V11.7734Z" fill="black"/>   
    </symbol>

    <symbol id="arrow_next"   viewBox="0 0 48 12"  >
        <path fill-rule="evenodd" clip-rule="evenodd" d="M38 0.226569L48 6.00007L38 11.7736L38 7.00007L-1.18432e-06 7.00007L-8.34626e-07 5.00007L38 5.00007L38 0.226569Z" fill="#85BBB1"/>
    </symbol>

    </svg>
    